HIERARCHY
ROOT hip
{
  OFFSET 0 0 0
  CHANNELS 6 Xposition Yposition Zposition Zrotation Yrotation Xrotation
  JOINT abdomen
  {
    OFFSET 0 20.6881 -0.73152
    CHANNELS 3 Zrotation Xrotation Yrotation
    JOINT chest
    {
      OFFSET 0 11.7043 -0.48768
      CHANNELS 3 Zrotation Xrotation Yrotation
      JOINT neck
      {
        OFFSET 0 22.1894 -2.19456
        CHANNELS 3 Zrotation Xrotation Yrotation
        JOINT head
        {
          OFFSET -0.24384 7.07133 1.2192
          CHANNELS 3 Zrotation Xrotation Yrotation
          JOINT leftEye
          {
            OFFSET 4.14528 8.04674 8.04672
            CHANNELS 3 Zrotation Xrotation Yrotation
            End Site
            {
              OFFSET 1 0 0
            }
          }
          JOINT rightEye
          {
            OFFSET -3.6576 8.04674 8.04672
            CHANNELS 3 Zrotation Xrotation Yrotation
            End Site
            {
              OFFSET 1 0 0
            }
          }
        }
      }
      JOINT rCollar
      {
        OFFSET -2.68224 19.2634 -4.8768
        CHANNELS 3 Zrotation Xrotation Yrotation
        JOINT rShldr
        {
          OFFSET -8.77824 -1.95073 1.46304
          CHANNELS 3 Zrotation Xrotation Yrotation
          JOINT rForeArm
          {
            OFFSET -28.1742 -1.7115 0.48768
            CHANNELS 3 Zrotation Xrotation Yrotation
            JOINT rHand
            {
              OFFSET -22.5879 0.773209 7.07136
              CHANNELS 3 Zrotation Xrotation Yrotation
              JOINT rThumb1
              {
                OFFSET -1.2192 -0.487915 3.41376
                CHANNELS 3 Zrotation Xrotation Yrotation
                JOINT rThumb2
                {
                  OFFSET -3.37035 -0.52449 3.41376
                  CHANNELS 3 Zrotation Xrotation Yrotation
                  End Site
                  {
                    OFFSET -1.78271 -1.18214 1.43049
                  }
                }
              }
              JOINT rIndex1
              {
                OFFSET -7.75947 0.938293 5.60832
                CHANNELS 3 Zrotation Xrotation Yrotation
                JOINT rIndex2
                {
                  OFFSET -2.54057 -0.884171 1.56538
                  CHANNELS 3 Zrotation Xrotation Yrotation
                  End Site
                  {
                    OFFSET -1.62519 -0.234802 1.16502
                  }
                }
              }
              JOINT rMid1
              {
                OFFSET -8.24714 1.18213 3.41376
                CHANNELS 3 Zrotation Xrotation Yrotation
                JOINT rMid2
                {
                  OFFSET -3.10165 -0.590103 1.0647
                  CHANNELS 3 Zrotation Xrotation Yrotation
                  End Site
                  {
                    OFFSET -2.48547 -0.328903 0.83742
                  }
                }
              }
              JOINT rRing1
              {
                OFFSET -8.82822 0.546677 1.51678
                CHANNELS 3 Zrotation Xrotation Yrotation
                JOINT rRing2
                {
                  OFFSET -2.60934 -0.819778 -0.0198488
                  CHANNELS 3 Zrotation Xrotation Yrotation
                  End Site
                  {
                    OFFSET -2.33842 -0.294052 0.168128
                  }
                }
              }
              JOINT rPinky1
              {
                OFFSET -8.27202 -0.0477905 -0.4584
                CHANNELS 3 Zrotation Xrotation Yrotation
                JOINT rPinky2
                {
                  OFFSET -1.82734 -0.647385 -0.700984
                  CHANNELS 3 Zrotation Xrotation Yrotation
                  End Site
                  {
                    OFFSET -1.69225 -0.51767 -0.607171
                  }
                }
              }
            }
          }
        }
      }
      JOINT lCollar
      {
        OFFSET 2.68224 19.2634 -4.8768
        CHANNELS 3 Zrotation Xrotation Yrotation
        JOINT lShldr
        {
          OFFSET 8.77824 -1.95073 1.46304
          CHANNELS 3 Zrotation Xrotation Yrotation
          JOINT lForeArm
          {
            OFFSET 28.1742 -1.7115 0.48768
            CHANNELS 3 Zrotation Xrotation Yrotation
            JOINT lHand
            {
              OFFSET 22.5879 0.773209 7.07136
              CHANNELS 3 Zrotation Xrotation Yrotation
              JOINT lThumb1
              {
                OFFSET 1.2192 -0.487915 3.41376
                CHANNELS 3 Zrotation Xrotation Yrotation
                JOINT lThumb2
                {
                  OFFSET 3.37035 -0.52449 3.41376
                  CHANNELS 3 Zrotation Xrotation Yrotation
                  End Site
                  {
                    OFFSET 1.78271 -1.18214 1.43049
                  }
                }
              }
              JOINT lIndex1
              {
                OFFSET 7.75947 0.938293 5.60832
                CHANNELS 3 Zrotation Xrotation Yrotation
                JOINT lIndex2
                {
                  OFFSET 2.54057 -0.884171 1.56538
                  CHANNELS 3 Zrotation Xrotation Yrotation
                  End Site
                  {
                    OFFSET 1.62519 -0.234802 1.16502
                  }
                }
              }
              JOINT lMid1
              {
                OFFSET 8.24714 1.18213 3.41376
                CHANNELS 3 Zrotation Xrotation Yrotation
                JOINT lMid2
                {
                  OFFSET 3.10165 -0.590103 1.0647
                  CHANNELS 3 Zrotation Xrotation Yrotation
                  End Site
                  {
                    OFFSET 2.48547 -0.328903 0.83742
                  }
                }
              }
              JOINT lRing1
              {
                OFFSET 8.82822 0.546677 1.51678
                CHANNELS 3 Zrotation Xrotation Yrotation
                JOINT lRing2
                {
                  OFFSET 2.60934 -0.819778 -0.0198488
                  CHANNELS 3 Zrotation Xrotation Yrotation
                  End Site
                  {
                    OFFSET 2.33842 -0.294052 0.168128
                  }
                }
              }
              JOINT lPinky1
              {
                OFFSET 8.27202 -0.0477905 -0.4584
                CHANNELS 3 Zrotation Xrotation Yrotation
                JOINT lPinky2
                {
                  OFFSET 1.82734 -0.647385 -0.700984
                  CHANNELS 3 Zrotation Xrotation Yrotation
                  End Site
                  {
                    OFFSET 1.69225 -0.51767 -0.607171
                  }
                }
              }
            }
          }
        }
      }
    }
  }
  JOINT rButtock
  {
    OFFSET -8.77824 4.35084 1.2192
    CHANNELS 3 Zrotation Xrotation Yrotation
    JOINT rThigh
    {
      OFFSET 0 -1.70687 -2.19456
      CHANNELS 3 Zrotation Xrotation Yrotation
      JOINT rShin
      {
        OFFSET 0 -36.8199 0.73152
        CHANNELS 3 Zrotation Xrotation Yrotation
        JOINT rFoot
        {
          OFFSET 0.73152 -45.1104 -5.12064
          CHANNELS 3 Zrotation Xrotation Yrotation
          End Site
          {
            OFFSET -1.1221 -3.69964 12.103
          }
        }
      }
    }
  }
  JOINT lButtock
  {
    OFFSET 8.77824 4.35084 1.2192
    CHANNELS 3 Zrotation Xrotation Yrotation
    JOINT lThigh
    {
      OFFSET 0 -1.70687 -2.19456
      CHANNELS 3 Zrotation Xrotation Yrotation
      JOINT lShin
      {
        OFFSET 0 -36.8199 0.73152
        CHANNELS 3 Zrotation Xrotation Yrotation
        JOINT lFoot
        {
          OFFSET -0.73152 -45.1104 -5.12064
          CHANNELS 3 Zrotation Xrotation Yrotation
          End Site
          {
            OFFSET 1.1221 -3.69964 12.103
          }
        }
      }
    }
  }
}
MOTION
Frames:	4
Frame Time:	0.03333
-3.3479499532841146 57.125099182128906 43.35100005939603 -11.501300185918808 -58.295302391052246 7.787699997425079 -1.0362199880182743 15.185099691152573 14.597199708223343 -2.9159199446439743 -13.229299932718277 3.676609843969345 -1.829339973628521 14.664599597454071 9.094910100102425 10.582500100135803 -23.87219935655594 20.24210035800934 0.0 0.0 0.0 0.0 0.0 0.0 0.0 0.0 0.0 13.312999606132507 82.530198097229 52.48519778251648 -26.541300415992737 -45.142698884010315 93.75369787216187 -31.167899072170258 -77.27030038833618 -38.47150057554245 -7.328537776629673e-10 8.031975085032173e-09 -8.0831341620069e-10 -1.2086331935279304e-09 1.3557155398302712e-08 -1.411990524502471e-09 -7.328537776629673e-10 8.031975085032173e-09 -8.0831341620069e-10 7.7309102565050125 5.474880114197731 0.41731400415301323 -7.328537776629673e-10 8.031975085032173e-09 -8.0831341620069e-10 2.905540131032467 0.9651830233633518 0.102901995414868 -7.328537776629673e-10 8.031975085032173e-09 -8.0831341620069e-10 10.27859978377819 0.7318009994924068 0.025912300043273717 -7.328537776629673e-10 8.031975085032173e-09 -8.0831341620069e-10 2.221670038998127 -0.733487019315362 -0.2089200052432716 0.0 0.0 0.0 -62.48790085315704 3.9296001568436623 -34.49240058660507 28.104000985622406 -31.27219945192337 -69.28329885005951 0.8233410213142633 24.862299263477325 -3.733990006148815 1.2789769243681803e-12 1.0487610779819079e-09 -1.2687451089732349e-09 -1.9824142327706795e-11 1.8468426787876524e-09 -2.1793766791233793e-09 1.2789769243681803e-12 1.0487610779819079e-09 -1.2687451089732349e-09 -7.7309102565050125 5.474880114197731 -0.41731400415301323 1.2789769243681803e-12 1.0487610779819079e-09 -1.2687451089732349e-09 -2.905540131032467 0.9651830233633518 -0.102901995414868 1.2789769243681803e-12 1.0487610779819079e-09 -1.2687451089732349e-09 -10.27859978377819 0.7318009994924068 -0.025912300043273717 1.2789769243681803e-12 1.0487610779819079e-09 -1.2687451089732349e-09 -2.221670038998127 -0.733487019315362 0.2089200052432716 0.0 0.0 0.0 -22.690399289131165 -35.15969932079315 -30.156899392604828 -3.6800001561641693 79.6477997303009 6.023149788379669 -10.188000127673149 -21.482899636030197 -24.38089907169342 0.0 0.0 0.0 61.58180236816406 -37.44239866733551 57.74320185184479 1.612319927662611 66.1009007692337 -1.8447700515389442 0.10984999593347311 3.3663899078965187 8.67513969540596
-3.4378499551676214 57.07630157470703 43.41800006106496 -11.664200127124786 -58.52039873600006 8.03869977593422 -1.0166899859905243 15.112700164318085 14.65039998292923 -2.9284998401999474 -13.228799700737 3.6914800107479095 -1.8498099222779274 14.66930016875267 9.1463702917099 10.551900118589401 -24.070800840854645 20.365400165319443 0.0 0.0 0.0 0.0 0.0 0.0 0.0 0.0 0.0 14.313800185918808 82.6265001296997 51.50470018386841 -26.534999907016754 -45.15680193901062 93.78309488296509 -31.17209941148758 -77.27150201797485 -38.47580015659332 -4.290967581255245e-10 9.22142362469458e-09 -2.107753971358761e-09 -6.081535275370697e-10 1.4897523215040565e-08 -3.5913672036258504e-09 -4.290967581255245e-10 9.22142362469458e-09 -2.107753971358761e-09 7.7309102565050125 5.474880114197731 0.41731400415301323 -4.290967581255245e-10 9.22142362469458e-09 -2.107753971358761e-09 2.905540131032467 0.9651830233633518 0.102901995414868 -4.290967581255245e-10 9.22142362469458e-09 -2.107753971358761e-09 10.27859978377819 0.7318009994924068 0.025912300043273717 -4.290967581255245e-10 9.22142362469458e-09 -2.107753971358761e-09 2.221670038998127 -0.733487019315362 -0.2089200052432716 0.0 0.0 0.0 -62.43429958820343 3.725469969213009 -34.45539951324463 28.102600872516632 -31.26259982585907 -69.26739871501923 0.8352809585630894 25.027000308036804 -3.7622199207544327 1.077538058780192e-09 6.906475391588174e-11 -3.069544618483633e-09 1.807833882594423e-09 2.3788970793248154e-10 -5.310312189976685e-09 1.077538058780192e-09 6.906475391588174e-11 -3.069544618483633e-09 -7.7309102565050125 5.474880114197731 -0.41731400415301323 1.077538058780192e-09 6.906475391588174e-11 -3.069544618483633e-09 -2.905540131032467 0.9651830233633518 -0.102901995414868 1.077538058780192e-09 6.906475391588174e-11 -3.069544618483633e-09 -10.27859978377819 0.7318009994924068 -0.025912300043273717 1.077538058780192e-09 6.906475391588174e-11 -3.069544618483633e-09 -2.221670038998127 -0.733487019315362 0.2089200052432716 0.0 0.0 0.0 -22.842898964881897 -35.15259951353073 -30.362799167633057 -3.6981499940156937 79.67130124568939 6.03381022810936 -10.089200288057327 -21.573500633239746 -24.1129007935524 0.0 0.0 0.0 61.810197830200195 -37.36589938402176 57.8210985660553 1.6330599412322044 66.32290184497833 -1.8768100440502167 0.10469000204466283 3.332739919424057 8.641689866781235
-3.5293499543331563 57.01580047607422 43.49400005862117 -11.741199642419815 -58.71910214424133 8.219099789857864 -1.0813599731773138 15.035600066184998 14.701100438833237 -2.909040078520775 -13.208200335502625 3.7066998705267906 -1.861519943922758 14.674800038337708 9.187980070710182 10.535299926996231 -24.290100932121277 20.474500358104706 0.0 0.0 0.0 0.0 0.0 0.0 0.0 0.0 0.0 15.04670038819313 82.70359754562378 50.793399810791016 -26.532400846481323 -45.16260087490082 93.79510045051575 -31.296999156475067 -77.3060005903244 -38.603800535202026 6.625100468227174e-10 1.4222223398974165e-09 -2.752358341240324e-09 1.3000800436202553e-09 1.0231815394945443e-09 -4.6350123739102855e-09 6.625100468227174e-10 1.4222223398974165e-09 -2.752358341240324e-09 7.7309102565050125 5.474880114197731 0.41731400415301323 6.625100468227174e-10 1.4222223398974165e-09 -2.752358341240324e-09 2.905540131032467 0.9651830233633518 0.102901995414868 6.625100468227174e-10 1.4222223398974165e-09 -2.752358341240324e-09 10.27859978377819 0.7318009994924068 0.025912300043273717 6.625100468227174e-10 1.4222223398974165e-09 -2.752358341240324e-09 2.221670038998127 -0.733487019315362 -0.2089200052432716 0.0 0.0 0.0 -62.40880250930786 3.4987498819828033 -34.45619881153107 28.10050070285797 -31.24809980392456 -69.2447018623352 0.8350200299173594 25.023298859596252 -3.76158993691206 2.1083934598209453e-09 -1.8596324480313342e-09 -3.212790034012869e-09 3.5868907843905617e-09 -3.06442871078616e-09 -5.596803021035157e-09 2.1083934598209453e-09 -1.8596324480313342e-09 -3.212790034012869e-09 -7.7309102565050125 5.474880114197731 -0.41731400415301323 2.1083934598209453e-09 -1.8596324480313342e-09 -3.212790034012869e-09 -2.905540131032467 0.9651830233633518 -0.102901995414868 2.1083934598209453e-09 -1.8596324480313342e-09 -3.212790034012869e-09 -10.27859978377819 0.7318009994924068 -0.025912300043273717 2.1083934598209453e-09 -1.8596324480313342e-09 -3.212790034012869e-09 -2.221670038998127 -0.733487019315362 0.2089200052432716 0.0 0.0 0.0 -23.034998774528503 -35.180199444293976 -30.53350031375885 -3.731990084052086 79.73800241947174 6.062420010566711 -10.009299963712692 -21.70900046825409 -23.85190039873123 0.0 0.0 0.0 62.02489793300629 -37.280100882053375 57.986000776290894 1.656269934028387 66.55570149421692 -1.908119972795248 0.10064900270663202 3.303069993853569 8.565289825201035
-3.6258499561809003 56.94060134887695 43.58200005814433 -11.731099784374237 -58.88240039348602 8.325299844145775 -1.1738299671560526 14.950500279664993 14.742399752140045 -2.882930114865303 -13.180499821901321 3.7189099565148354 -1.8758499808609486 14.687399715185165 9.216970056295395 10.552899911999702 -24.47889894247055 20.56170031428337 0.0 0.0 0.0 0.0 0.0 0.0 0.0 0.0 0.0 15.66100001335144 82.78520107269287 50.20729959011078 -26.534798741340637 -45.15730082988739 93.78410339355469 -31.502499282360077 -77.36219823360443 -38.8144987821579 1.4279777360570733e-09 -4.1592329580453224e-09 -3.2946445571724325e-09 2.6430058142068447e-09 -8.942606655182317e-09 -5.494484867085703e-09 1.4279777360570733e-09 -4.1592329580453224e-09 -3.2946445571724325e-09 7.7309102565050125 5.474880114197731 0.41731400415301323 1.4279777360570733e-09 -4.1592329580453224e-09 -3.2946445571724325e-09 2.905540131032467 0.9651830233633518 0.102901995414868 1.4279777360570733e-09 -4.1592329580453224e-09 -3.2946445571724325e-09 10.27859978377819 0.7318009994924068 0.025912300043273717 1.4279777360570733e-09 -4.1592329580453224e-09 -3.2946445571724325e-09 2.221670038998127 -0.733487019315362 -0.2089200052432716 0.0 0.0 0.0 -62.39829897880554 3.274100124835968 -34.486800134181976 28.095399141311646 -31.213799715042114 -69.19000089168549 0.8306200336664915 24.962699711322784 -3.7511900067329407 2.9390889721980784e-09 -3.304876372567378e-09 -3.4276581573067233e-09 5.01870545122074e-09 -5.5354121286654845e-09 -5.985612006043084e-09 2.9390889721980784e-09 -3.304876372567378e-09 -3.4276581573067233e-09 -7.7309102565050125 5.474880114197731 -0.41731400415301323 2.9390889721980784e-09 -3.304876372567378e-09 -3.4276581573067233e-09 -2.905540131032467 0.9651830233633518 -0.102901995414868 2.9390889721980784e-09 -3.304876372567378e-09 -3.4276581573067233e-09 -10.27859978377819 0.7318009994924068 -0.025912300043273717 2.9390889721980784e-09 -3.304876372567378e-09 -3.4276581573067233e-09 -2.221670038998127 -0.733487019315362 0.2089200052432716 0.0 0.0 0.0 -23.25270026922226 -35.20910024642944 -30.6929013133049 -3.7772198393940926 79.83259856700897 6.105010136961937 -9.9447700381279 -21.865400075912476 -23.610000014305115 0.0 0.0 0.0 62.24030077457428 -37.20090061426163 58.20440232753754 1.6826400719583035 66.8064022064209 -1.9402199797332287 0.10189100168645382 3.256150111556053 8.472009971737862
